<svg xmlns="http://www.w3.org/2000/svg" viewBox="0 0 1600 1000" preserveAspectRatio="xMidYMid slice"><g fill="none" stroke="#ece5d8" stroke-width="1" vector-effect="non-scaling-stroke"><path d="M457 380C457 381 456 382 456 383C456 384 456 385 455 385C455 386 454 387 454 388C453 389 453 390 452 390C452 391 451 392 451 393C450 394 450 394 449 395C448 396 447 397 446 397C446 398 445 398 444 399C443 399 441 400 440 400C439 401 438 401 437 401C436 402 435 402 434 402C432 402 431 402 430 402C429 403 428 403 427 403C426 403 424 403 423 403C422 403 421 402 420 402C419 402 418 402 417 402C416 402 415 402 414 402C413 402 411 402 410 401C409 401 408 401 407 401C406 401 404 401 403 401C402 401 401 401 399 400C398 400 397 400 396 399C395 399 394 398 393 398C392 397 391 396 390 396C390 395 389 394 389 393C389 392 388 391 388 390C388 389 388 388 388 388C388 387 388 386 388 385C387 384 387 383 387 382C387 382 387 381 387 380C386 379 386 378 386 377C386 377 386 376 386 375C386 374 387 373 387 372C387 371 388 371 388 370C389 369 389 368 390 368C391 367 392 366 392 366C393 365 394 364 395 364C396 363 396 362 397 362C398 361 399 361 400 360C401 360 402 359 403 359C404 358 405 358 406 357C407 357 408 357 409 356C410 356 412 356 413 356C414 355 415 355 416 355C418 355 419 355 420 355C421 355 422 355 424 355C425 355 426 355 427 356C428 356 430 356 431 357C432 357 433 358 434 358C434 359 435 359 436 360C437 361 438 361 438 362C439 363 440 363 440 364C441 364 442 365 442 365C443 366 444 366 445 367C446 368 447 368 448 368C449 369 450 370 451 370C452 371 453 371 453 372C454 373 455 374 455 375C456 375 456 376 456 377C457 378 457 379 457 380Z"/><path d="M494 380C494 382 493 384 492 385C492 387 491 389 490 391C490 393 489 394 488 396C487 398 486 399 485 401C484 402 483 404 482 406C481 407 479 409 478 410C476 412 475 413 473 414C471 415 469 417 467 418C465 419 463 420 461 420C458 421 456 422 454 422C452 423 449 423 447 424C445 424 442 424 440 425C438 425 436 425 433 425C431 425 429 425 427 425C424 425 422 425 420 425C418 424 416 424 414 424C411 424 409 424 407 423C405 423 403 423 401 423C398 423 396 423 394 423C391 423 389 422 386 422C384 422 381 422 379 421C376 421 374 420 371 419C369 418 367 417 365 416C363 414 362 413 361 411C359 409 358 408 358 406C357 404 357 402 356 400C356 399 356 397 356 395C356 393 355 392 355 390C355 388 355 387 354 385C354 383 354 382 353 380C353 378 353 377 352 375C352 373 352 371 352 370C353 368 353 366 354 364C354 363 355 361 356 360C357 358 359 357 360 355C362 354 363 352 365 351C366 350 368 348 370 347C371 346 373 345 375 344C376 343 378 342 380 340C382 339 384 338 386 337C388 337 390 336 392 335C394 334 396 333 399 333C401 332 403 332 406 331C408 331 410 331 413 330C415 330 418 330 420 330C422 330 425 330 427 330C430 330 432 331 434 331C437 332 439 332 441 333C443 334 445 335 447 336C449 338 450 339 452 340C454 341 455 343 456 344C458 345 459 347 460 348C462 349 463 350 465 351C466 352 468 353 470 354C472 355 474 356 476 357C478 358 480 359 482 360C484 361 485 363 487 364C489 366 490 367 491 369C492 371 493 373 493 374C494 376 494 378 494 380Z"/><path d="M531 380C531 383 530 386 529 388C528 391 527 394 526 396C525 399 523 401 522 404C521 406 519 409 518 411C516 414 514 416 513 419C511 421 509 423 507 425C504 427 502 429 499 431C496 433 494 435 490 436C487 438 484 439 481 440C478 441 474 442 471 443C467 444 464 445 460 445C457 446 453 446 450 446C447 447 443 447 440 447C436 447 433 447 430 447C426 447 423 447 420 447C417 446 414 446 410 446C407 446 404 445 401 445C398 445 394 445 391 445C387 444 384 444 380 444C377 444 373 444 369 444C365 443 361 443 357 442C354 441 350 440 347 439C343 437 340 436 337 434C335 432 332 429 331 427C329 424 328 422 327 419C326 416 325 413 325 411C324 408 324 405 324 402C324 400 323 397 323 395C323 392 322 390 322 387C321 385 320 383 320 380C319 377 319 375 318 372C318 370 318 367 318 364C319 362 319 359 320 357C321 354 323 352 324 349C326 347 328 345 330 343C332 341 335 339 337 337C339 335 342 333 344 331C347 329 349 327 352 326C355 324 357 322 360 321C363 319 366 318 369 316C372 315 375 313 378 312C381 311 385 310 388 309C391 308 395 308 398 307C402 306 406 306 409 305C413 305 416 305 420 305C424 305 427 305 431 305C435 306 438 306 442 307C445 308 448 309 451 310C455 312 458 313 460 315C463 317 465 319 468 321C470 322 472 325 474 326C476 328 478 330 480 332C482 334 484 335 487 337C489 338 492 340 495 341C497 342 501 344 504 345C507 347 510 348 513 350C516 352 519 354 521 356C524 359 526 361 527 364C529 366 530 369 531 372C531 374 531 377 531 380Z"/><path d="M568 380C568 384 567 387 566 391C564 395 563 398 561 402C560 405 558 408 556 412C554 415 552 418 550 422C548 425 546 428 544 431C541 434 538 438 535 440C532 443 529 446 525 448C522 451 518 453 514 455C510 457 505 459 501 460C496 462 492 463 487 464C483 465 478 466 473 466C469 467 464 468 460 468C455 469 451 469 446 469C442 469 437 469 433 469C429 469 424 469 420 468C416 468 412 468 407 467C403 467 399 467 394 467C390 466 386 466 381 466C377 466 372 466 367 466C362 466 357 466 352 465C346 465 341 464 336 463C331 462 326 461 321 459C317 457 313 454 309 452C306 449 303 446 301 442C298 439 297 435 296 432C294 428 294 424 293 421C293 417 293 413 292 410C292 406 292 403 291 400C290 396 290 393 289 390C288 387 287 383 286 380C286 377 285 373 284 370C284 366 284 363 284 359C285 356 286 352 287 349C288 346 290 342 293 339C295 336 297 333 300 330C303 327 306 325 309 322C313 320 316 317 319 315C323 312 326 310 329 308C333 305 336 303 340 301C344 299 348 297 352 295C356 293 360 291 364 290C368 288 373 287 377 286C382 284 387 283 391 283C396 282 401 281 405 281C410 280 415 280 420 280C425 280 430 280 435 280C439 281 444 282 449 283C453 284 458 285 462 287C466 289 470 291 473 294C477 296 480 299 483 301C486 304 489 307 492 309C494 312 497 314 500 316C503 318 506 320 509 322C512 324 516 326 520 328C524 330 528 331 532 333C536 335 541 338 545 340C549 342 553 345 556 348C559 351 562 355 564 358C566 361 568 365 568 369C569 372 569 376 568 380Z"/><path d="M606 380C605 385 604 389 602 394C601 398 599 403 597 407C595 411 592 416 590 420C588 424 585 428 583 432C580 436 578 440 574 444C571 448 568 452 564 455C560 459 556 462 552 465C547 468 542 471 537 473C532 476 526 478 521 480C515 482 509 483 504 484C498 486 492 487 486 487C481 488 475 489 469 490C464 490 458 490 453 491C447 491 442 491 436 491C431 491 425 490 420 490C415 490 409 489 404 489C399 489 394 488 388 488C383 488 377 488 371 488C365 488 359 488 353 488C347 488 340 488 334 487C328 487 321 486 314 485C308 483 302 481 296 479C291 477 285 474 281 470C277 467 273 462 271 458C268 454 266 449 265 445C263 440 263 435 262 431C261 426 261 422 261 417C260 413 260 409 259 405C258 400 257 396 256 392C255 388 254 384 253 380C252 376 251 371 250 367C250 363 250 358 250 354C251 350 252 345 254 341C255 337 258 333 261 329C263 325 267 321 270 318C274 314 278 311 282 308C286 304 290 301 294 298C298 295 302 292 307 290C311 287 316 284 320 281C325 279 330 276 335 274C340 271 345 269 350 267C356 265 361 263 367 262C372 260 378 259 384 258C390 257 396 256 402 256C408 255 414 255 420 255C426 255 432 255 438 255C444 256 450 257 456 259C461 260 467 262 472 265C477 267 482 270 486 273C491 276 495 279 498 282C502 285 506 289 509 292C512 295 516 298 519 301C523 303 527 306 531 308C535 310 540 312 545 315C550 317 555 319 561 321C566 324 572 327 577 330C582 333 587 336 591 340C595 344 599 348 601 352C604 357 605 361 606 366C607 371 607 375 606 380Z"/><path d="M644 380C643 386 641 391 639 397C637 402 635 407 632 412C630 418 627 423 624 428C621 433 619 438 615 443C612 448 609 452 605 457C602 462 597 466 593 470C588 475 583 479 578 482C572 486 566 489 560 492C554 495 547 497 540 499C534 501 527 503 520 505C513 506 506 507 499 508C493 509 486 510 479 511C472 511 466 512 459 512C452 512 446 512 439 512C433 512 426 512 420 511C414 511 407 511 401 510C395 510 388 510 382 510C375 510 368 510 361 510C354 510 347 510 340 510C332 510 324 510 316 510C308 509 300 508 292 506C285 505 277 503 271 500C264 497 258 493 253 488C248 484 244 479 240 474C237 469 235 463 234 457C232 452 231 446 231 441C230 435 230 430 229 425C229 419 228 414 227 409C226 405 225 400 224 395C222 390 221 385 219 380C218 375 217 370 216 365C216 359 215 354 216 349C217 344 218 338 220 333C222 328 225 323 229 319C232 314 236 310 241 305C245 301 250 297 254 293C259 289 264 286 269 282C274 278 279 275 284 271C289 268 295 265 300 261C306 258 312 255 318 252C324 249 330 247 336 245C343 242 349 240 356 238C363 237 370 235 377 234C384 232 391 231 398 231C405 230 413 230 420 230C427 230 435 230 442 231C449 232 456 233 463 235C470 237 476 239 482 242C488 245 494 248 499 252C504 255 509 259 514 263C518 267 522 271 526 275C530 278 534 282 539 285C543 288 548 291 553 294C558 296 564 299 570 301C576 304 583 306 590 309C597 312 604 315 610 319C616 323 622 327 627 332C632 336 636 341 639 346C642 352 644 357 645 363C645 369 645 374 644 380Z"/><path d="M682 380C681 387 678 393 676 399C674 406 671 412 668 418C665 424 661 430 658 436C655 442 652 447 648 453C644 459 641 464 636 470C632 475 627 481 621 485C616 490 610 495 604 499C597 503 590 507 583 510C575 513 567 516 560 518C552 521 544 523 536 525C528 526 520 528 512 529C504 530 496 531 488 532C481 532 473 533 465 533C458 533 450 533 442 533C435 533 427 533 420 533C413 532 405 532 398 532C390 532 383 532 375 532C368 532 360 532 351 532C343 532 334 533 326 533C317 533 307 533 298 532C289 531 279 530 270 528C261 527 252 524 245 520C237 517 230 512 224 507C218 502 214 496 210 490C207 484 205 477 203 470C201 464 201 457 200 451C199 444 199 438 198 432C198 426 197 420 196 414C195 409 193 403 191 397C190 392 187 386 186 380C184 374 182 368 182 362C181 356 181 350 182 344C182 337 184 331 187 325C189 320 193 314 197 308C201 303 206 298 211 293C216 288 221 284 227 279C232 274 238 270 244 266C250 262 256 257 262 253C268 249 274 245 280 242C287 238 294 234 301 231C307 228 315 225 322 222C330 219 337 217 345 215C353 213 361 211 370 209C378 208 386 207 395 206C403 205 412 205 420 205C428 205 437 205 445 206C454 207 462 209 470 211C478 213 485 216 492 220C499 223 506 227 512 231C518 236 523 240 528 245C534 249 538 254 543 258C548 262 553 266 558 270C563 273 569 276 575 279C582 282 589 285 596 288C603 291 612 294 620 297C627 300 636 304 643 308C651 313 658 318 664 323C669 328 674 334 677 341C681 347 682 354 683 360C684 367 683 373 682 380Z"/><path d="M720 380C719 388 716 395 713 402C710 409 706 416 703 423C700 430 696 437 692 444C688 450 685 457 680 463C676 470 672 476 667 483C662 489 656 495 650 500C644 506 637 511 629 516C622 520 614 524 605 528C597 532 588 535 579 537C570 540 561 542 552 544C543 546 534 548 525 549C516 550 507 551 498 552C489 553 480 554 471 554C463 554 454 554 445 554C437 554 428 554 420 554C412 554 403 553 395 553C386 553 378 553 369 553C360 554 351 554 341 554C332 555 322 555 311 556C301 556 290 556 280 555C269 554 258 553 248 551C237 549 227 545 218 541C210 537 202 532 195 526C189 520 184 513 180 506C176 498 174 491 172 483C170 475 170 468 169 460C168 453 168 446 168 439C167 432 166 426 164 419C163 413 161 406 159 400C157 393 154 387 152 380C150 373 148 366 147 359C146 352 146 345 147 338C148 331 150 324 153 318C156 311 160 304 165 298C170 292 175 286 181 281C187 275 193 270 200 265C206 260 212 255 219 250C226 245 232 240 239 235C246 231 253 226 260 222C268 218 275 213 283 210C291 206 300 202 308 199C317 196 326 193 335 191C344 189 353 187 362 185C372 183 381 182 391 181C401 180 410 180 420 180C430 180 439 180 449 182C458 183 468 185 477 187C486 190 494 194 502 198C510 201 518 206 524 211C531 216 537 221 543 226C549 231 554 237 560 241C566 246 571 250 577 254C583 258 590 262 597 265C605 268 613 271 622 274C631 278 640 281 650 285C659 288 669 293 677 298C686 303 694 308 701 314C707 321 712 328 716 335C720 342 721 350 722 357C723 365 722 372 720 380Z"/><path d="M759 380C757 388 753 397 750 405C746 413 742 421 738 429C734 436 730 444 726 452C722 459 718 467 713 474C708 481 703 488 697 495C692 502 685 509 678 515C671 521 663 527 655 532C646 537 637 542 628 546C618 550 608 553 598 556C588 559 578 562 567 564C557 566 547 568 537 569C527 571 517 572 507 573C497 574 487 574 477 575C468 575 458 575 449 575C439 575 429 575 420 575C411 575 401 575 392 575C382 575 372 575 362 575C352 576 342 576 331 577C320 578 309 578 297 579C285 579 273 579 261 578C249 578 236 576 225 574C213 571 202 567 192 562C182 557 173 551 166 544C159 538 154 529 150 521C146 513 144 504 142 496C140 487 140 478 139 470C138 462 138 454 137 446C136 439 135 431 133 424C131 417 129 410 126 402C124 395 121 388 118 380C116 372 114 365 113 357C112 349 111 341 112 333C113 325 116 317 119 310C123 302 128 295 133 288C138 281 145 275 151 268C158 262 165 256 172 250C179 245 187 239 194 234C202 228 209 223 217 217C224 212 232 207 241 202C249 197 257 193 266 188C275 184 285 180 294 177C304 173 314 170 324 167C334 165 345 162 355 161C366 159 377 157 387 156C398 155 409 155 420 155C431 155 442 156 453 157C463 159 474 161 484 164C494 167 503 171 512 176C521 180 529 186 537 191C544 197 551 203 558 208C564 214 570 220 576 225C583 230 589 235 596 239C603 243 611 247 620 250C628 254 638 257 648 261C658 264 670 267 680 272C691 276 702 281 712 286C721 292 731 299 738 306C745 313 751 321 755 329C759 337 761 346 761 354C762 363 761 372 759 380Z"/><path d="M797 380C795 389 791 399 787 408C783 417 778 425 774 434C769 443 765 451 760 460C755 468 750 476 745 484C740 492 734 500 728 508C722 516 714 523 707 530C699 537 690 543 680 549C671 554 660 559 650 564C639 568 628 572 617 575C605 578 594 581 583 583C571 585 560 587 549 589C538 590 527 592 516 593C505 594 494 595 484 595C473 596 462 596 452 596C441 596 431 596 420 596C409 596 399 596 388 596C378 597 367 597 356 598C345 598 333 599 321 600C309 601 296 602 283 602C269 603 255 603 242 602C228 601 214 600 201 597C189 593 176 589 165 584C155 578 145 571 137 563C130 555 124 546 120 537C116 528 113 518 111 508C110 499 109 489 109 480C108 471 108 462 107 453C105 445 104 437 102 429C100 421 97 413 94 405C91 397 87 388 84 380C82 372 79 363 78 354C77 345 76 336 78 328C79 319 82 310 86 302C90 293 95 285 101 278C107 270 115 263 122 256C129 249 137 243 145 236C153 230 161 224 169 217C177 211 186 205 194 199C203 194 211 188 221 182C230 177 239 172 249 167C259 162 269 158 280 154C291 150 302 147 313 144C325 141 336 138 348 136C360 134 372 133 384 132C396 131 408 130 420 130C432 130 444 131 456 133C468 135 480 137 491 141C502 144 512 149 522 154C532 159 541 165 549 171C557 177 565 184 572 191C579 197 586 203 593 209C600 214 607 219 615 224C624 228 632 232 642 236C652 240 664 243 675 247C687 250 699 254 712 259C724 264 736 269 747 275C758 281 768 289 776 297C784 305 791 314 795 323C799 332 801 342 801 351C801 361 799 371 797 380Z"/><path d="M836 380C833 390 828 401 824 411C819 420 814 430 809 440C804 449 799 458 794 467C788 477 783 486 777 495C771 503 765 512 758 521C751 529 743 537 735 545C726 552 716 559 705 565C695 571 683 576 672 581C660 586 647 590 635 593C623 597 610 599 598 602C586 604 573 606 561 608C549 610 537 611 525 613C513 614 501 615 489 615C478 616 466 616 455 617C443 617 432 617 420 617C408 617 397 617 385 618C373 618 362 619 349 620C337 621 324 622 310 623C297 624 282 626 268 626C253 627 238 627 223 626C208 625 192 623 178 620C164 616 150 611 138 605C127 599 117 591 108 582C100 573 94 563 90 553C85 542 83 531 81 521C80 510 80 499 79 489C78 479 78 470 77 460C75 451 73 442 71 433C68 425 65 416 61 407C58 398 53 389 50 380C47 371 44 361 43 351C42 342 41 332 43 322C44 313 48 303 52 294C56 285 63 276 69 268C76 259 84 251 92 244C100 236 109 229 118 222C127 215 136 208 144 201C153 195 162 188 172 182C181 175 191 169 201 163C211 157 221 151 232 146C243 140 254 136 266 131C278 127 290 123 303 120C315 117 328 114 341 112C354 110 367 108 380 107C393 106 407 105 420 105C433 106 447 107 460 109C472 111 485 114 497 118C509 122 521 127 532 133C542 138 552 145 561 152C570 159 578 166 586 173C594 180 601 186 609 192C617 198 625 204 635 208C644 213 654 217 665 221C676 225 689 228 702 232C715 236 730 240 743 246C757 251 771 257 783 264C795 271 806 279 815 288C824 296 830 306 835 317C839 327 841 338 841 348C841 359 838 370 836 380Z"/><path d="M874 380C871 391 865 403 860 413C855 424 849 435 844 445C838 455 833 465 827 475C821 485 816 495 809 505C803 514 796 524 788 533C781 542 772 551 762 559C753 567 742 574 730 581C719 588 706 593 693 598C680 603 667 608 653 611C640 615 626 618 613 621C599 623 586 625 573 627C560 629 547 631 534 632C521 634 508 635 495 636C483 636 470 637 458 637C445 638 433 638 420 638C407 639 395 639 382 640C369 640 356 641 342 643C329 644 315 645 300 647C285 648 269 650 253 651C237 651 219 652 203 651C187 650 169 647 154 644C139 640 124 634 111 627C99 620 88 611 79 601C71 591 65 580 60 568C56 557 54 545 52 533C50 522 50 510 49 499C48 488 48 477 47 467C45 457 43 448 40 438C37 429 33 419 29 410C25 400 20 390 16 380C13 370 9 359 8 349C6 338 6 327 8 317C10 306 13 296 18 286C23 276 30 267 38 257C45 248 54 240 63 232C72 223 81 216 91 208C100 200 110 193 120 185C129 178 139 171 149 164C160 156 170 149 181 143C192 136 203 130 215 124C227 119 239 113 252 109C265 104 278 100 292 96C306 93 320 90 334 87C348 85 362 83 377 82C391 81 406 80 420 81C434 81 449 82 463 85C477 87 491 91 504 95C517 100 530 105 541 112C553 118 563 125 573 133C583 140 591 148 600 155C609 163 617 170 626 176C635 183 643 188 654 193C664 198 676 202 688 206C701 210 715 214 730 218C745 222 761 226 776 232C791 238 807 244 820 252C833 260 845 269 854 278C864 288 871 299 875 310C879 321 881 334 881 345C880 357 877 369 874 380Z"/><path d="M912 380C908 392 902 404 897 416C891 428 885 439 879 450C873 461 867 472 860 483C854 494 848 505 841 515C834 525 827 536 818 546C810 555 800 565 790 573C779 582 767 590 755 597C742 604 728 610 714 615C700 621 686 625 671 629C657 633 642 636 628 639C613 642 599 644 585 646C570 648 556 650 543 652C529 653 515 654 501 655C488 656 474 657 461 658C447 658 434 659 420 659C406 660 393 661 379 662C365 663 351 664 336 666C321 667 305 669 289 671C272 672 255 675 237 675C220 676 201 677 183 676C165 674 146 672 130 667C113 663 97 657 84 649C71 641 59 631 50 620C41 609 35 596 30 584C26 571 24 558 22 545C21 533 21 520 20 508C19 496 19 485 17 474C15 463 13 453 9 443C6 433 1 423 -4 412C-9 402 -14 391 -18 380C-22 369 -26 358 -27 346C-29 335 -29 323 -27 312C-25 300 -21 289 -16 278C-10 267 -2 257 6 247C14 237 24 228 34 219C43 210 54 202 64 194C74 185 85 177 95 169C106 161 116 153 127 146C138 138 149 130 161 123C173 116 185 109 198 103C211 97 224 91 238 86C252 81 267 76 281 73C296 69 311 66 326 63C342 61 357 59 373 58C389 56 404 56 420 56C436 57 451 58 467 61C482 64 497 68 511 73C525 77 538 84 551 91C563 98 574 106 585 114C595 122 604 130 614 138C623 146 632 154 642 160C652 167 661 172 673 178C685 183 698 187 712 191C726 195 742 199 758 203C774 208 793 212 809 218C825 224 843 231 857 240C871 248 884 258 894 269C904 280 911 292 916 304C920 316 921 329 921 342C920 355 916 368 912 380Z"/><path d="M951 380C946 393 939 406 933 419C927 431 920 443 913 455C907 467 900 479 893 491C887 502 880 514 873 525C865 536 857 548 848 558C839 568 829 579 817 588C806 597 793 605 779 613C765 620 750 627 735 632C720 638 704 642 689 646C673 651 658 654 642 657C627 660 611 663 596 665C581 667 566 669 551 671C536 673 522 674 507 675C493 676 478 677 464 678C449 679 435 680 420 681C405 681 391 682 376 684C360 685 345 687 329 689C313 691 296 693 278 695C260 697 241 700 222 701C203 702 182 702 163 701C143 699 123 697 106 692C88 687 71 679 57 671C43 662 30 650 21 639C12 627 6 613 1 599C-4 586 -5 571 -7 557C-8 544 -8 530 -9 517C-10 505 -10 493 -12 481C-14 469 -18 459 -22 448C-26 437 -32 426 -37 415C-42 403 -48 392 -53 380C-57 368 -61 356 -63 343C-64 331 -65 318 -62 306C-60 294 -55 282 -49 270C-43 259 -35 248 -26 237C-17 227 -6 217 4 207C15 198 26 189 37 180C48 171 59 162 70 153C82 145 93 136 105 128C116 119 128 111 141 103C154 96 167 88 181 81C195 75 209 69 224 63C239 58 255 53 271 49C287 45 303 42 319 39C336 36 353 34 369 33C386 32 403 31 420 32C437 33 454 34 470 37C486 40 502 45 517 50C532 56 547 63 560 70C573 78 585 87 596 95C607 104 617 113 628 121C638 129 647 137 658 144C669 151 680 157 693 162C706 167 720 171 736 175C751 180 769 183 787 188C805 193 825 198 843 204C861 211 880 219 895 228C910 237 924 248 935 260C945 271 953 285 957 298C961 311 962 325 961 339C960 353 955 367 951 380Z"/><path d="M1256 640C1256 641 1256 642 1256 643C1256 644 1256 645 1256 646C1256 646 1255 647 1255 648C1255 649 1254 650 1254 651C1253 652 1252 652 1252 653C1251 654 1250 655 1250 655C1249 656 1248 657 1247 658C1246 658 1245 659 1244 659C1243 660 1242 660 1241 660C1240 661 1238 661 1237 661C1236 662 1235 662 1234 662C1233 662 1231 663 1230 663C1229 663 1228 663 1227 664C1226 664 1225 664 1224 665C1222 665 1221 665 1220 666C1219 666 1217 666 1216 666C1215 666 1213 667 1212 666C1211 666 1210 666 1208 666C1207 665 1206 665 1205 665C1204 664 1203 663 1202 663C1201 662 1200 662 1199 661C1198 660 1197 660 1196 659C1195 658 1194 658 1193 657C1192 657 1191 656 1191 655C1190 655 1189 654 1188 653C1187 653 1186 652 1186 651C1185 650 1184 649 1184 648C1184 648 1183 647 1183 646C1183 645 1183 644 1183 643C1183 642 1184 641 1184 640C1184 639 1184 638 1185 637C1185 636 1185 636 1186 635C1186 634 1186 633 1187 632C1187 631 1188 631 1188 630C1189 629 1190 628 1190 628C1191 627 1192 626 1192 625C1193 625 1194 624 1194 623C1195 623 1196 622 1197 621C1197 621 1198 620 1199 619C1200 619 1201 618 1202 617C1203 617 1204 616 1205 616C1206 615 1207 615 1208 614C1210 614 1211 614 1212 614C1214 614 1215 614 1216 614C1217 614 1219 614 1220 614C1221 614 1222 615 1224 615C1225 615 1226 615 1227 616C1228 616 1230 616 1231 616C1232 616 1233 617 1234 617C1236 617 1237 617 1238 617C1239 618 1241 618 1242 618C1243 619 1244 619 1245 620C1246 621 1247 621 1248 622C1249 623 1249 624 1250 624C1250 625 1251 626 1251 627C1252 628 1252 629 1253 630C1253 630 1253 631 1254 632C1254 633 1254 634 1255 635C1255 636 1255 636 1256 637C1256 638 1256 639 1256 640Z"/><path d="M1293 640C1293 642 1293 644 1293 646C1293 647 1292 649 1292 651C1291 653 1291 655 1290 656C1289 658 1288 660 1287 662C1286 663 1285 665 1284 666C1282 668 1281 670 1279 671C1278 672 1276 674 1274 675C1272 676 1270 677 1268 678C1266 679 1263 680 1261 681C1259 681 1256 682 1254 683C1252 683 1250 684 1247 684C1245 685 1243 685 1241 686C1238 686 1236 687 1234 687C1232 688 1230 689 1227 690C1225 690 1222 691 1220 692C1218 692 1215 693 1212 693C1210 693 1207 693 1204 693C1202 693 1199 692 1197 692C1194 691 1192 690 1190 689C1187 688 1185 687 1183 686C1181 684 1180 683 1178 682C1176 681 1174 679 1172 678C1170 677 1169 676 1167 675C1165 673 1163 672 1161 671C1159 670 1157 668 1156 667C1154 665 1152 664 1151 662C1150 660 1149 659 1148 657C1147 655 1147 653 1147 651C1146 649 1146 647 1147 646C1147 644 1147 642 1148 640C1148 638 1149 636 1149 635C1150 633 1151 631 1151 629C1152 628 1153 626 1154 625C1155 623 1156 621 1157 620C1158 618 1159 617 1161 615C1162 614 1163 612 1165 611C1166 610 1167 608 1169 607C1170 605 1172 604 1173 603C1175 601 1176 600 1178 599C1180 597 1182 596 1184 595C1185 593 1188 592 1190 591C1192 590 1194 589 1197 589C1199 588 1202 588 1204 587C1207 587 1210 587 1212 587C1215 588 1218 588 1220 589C1222 589 1225 590 1227 590C1230 591 1232 591 1234 591C1237 592 1239 592 1241 593C1244 593 1246 593 1249 593C1251 594 1254 594 1256 595C1259 595 1261 596 1264 597C1266 597 1268 599 1270 600C1272 601 1274 602 1276 604C1277 605 1279 607 1280 609C1281 610 1282 612 1283 614C1284 616 1284 617 1285 619C1286 621 1286 623 1287 624C1288 626 1289 628 1289 629C1290 631 1291 633 1291 635C1292 636 1292 638 1293 640Z"/><path d="M1329 640C1329 643 1330 646 1329 648C1329 651 1329 654 1328 657C1327 659 1326 662 1325 665C1324 667 1322 670 1321 672C1319 675 1317 677 1315 680C1313 682 1311 684 1309 686C1306 689 1304 691 1301 692C1298 694 1295 696 1292 697C1288 699 1285 700 1281 701C1278 702 1274 703 1271 704C1268 704 1264 705 1261 706C1257 707 1254 707 1251 708C1247 709 1244 710 1241 711C1238 712 1234 713 1231 715C1227 716 1224 717 1220 718C1216 719 1212 719 1208 720C1204 720 1200 720 1196 720C1193 720 1189 719 1185 718C1181 717 1178 715 1174 714C1171 712 1168 710 1165 708C1162 707 1159 705 1157 703C1154 701 1151 699 1148 697C1146 695 1143 694 1140 692C1137 690 1134 688 1131 686C1128 685 1126 683 1123 680C1121 678 1118 676 1116 673C1115 671 1113 668 1112 665C1111 663 1110 660 1110 657C1110 654 1110 651 1110 648C1110 646 1111 643 1112 640C1112 637 1113 635 1114 632C1115 629 1116 627 1117 624C1119 622 1120 619 1121 617C1122 614 1124 612 1126 610C1127 607 1129 605 1131 603C1133 601 1135 599 1137 597C1139 594 1141 592 1143 590C1145 588 1148 586 1150 584C1152 582 1155 580 1157 578C1160 576 1162 574 1165 572C1168 570 1171 568 1174 566C1178 565 1181 564 1185 563C1189 562 1193 561 1197 561C1201 561 1205 561 1209 561C1212 562 1216 562 1220 563C1224 564 1227 565 1231 565C1234 566 1238 567 1241 567C1245 568 1249 568 1252 569C1256 569 1260 570 1263 570C1267 571 1271 571 1275 572C1278 573 1282 573 1286 575C1289 576 1293 578 1296 579C1299 581 1301 583 1304 586C1306 588 1308 591 1310 593C1311 596 1313 598 1314 601C1315 604 1316 606 1317 609C1319 611 1320 614 1321 616C1322 619 1323 621 1324 624C1325 627 1326 629 1327 632C1328 635 1329 637 1329 640Z"/><path d="M1365 640C1366 644 1366 647 1366 651C1366 655 1365 658 1364 662C1363 666 1362 669 1360 673C1358 676 1357 680 1354 683C1352 686 1350 690 1347 693C1344 696 1341 699 1338 702C1335 705 1331 707 1327 710C1324 712 1319 714 1315 716C1311 718 1306 720 1302 721C1297 722 1292 723 1288 724C1283 726 1279 726 1274 727C1270 729 1265 730 1261 731C1257 732 1252 733 1248 735C1244 736 1239 738 1235 740C1230 741 1225 743 1220 744C1215 745 1210 746 1204 747C1199 747 1194 747 1188 747C1183 746 1178 745 1173 744C1168 742 1164 740 1159 738C1155 736 1151 734 1147 731C1143 729 1139 726 1136 724C1132 721 1128 719 1125 716C1121 714 1117 712 1113 709C1109 707 1105 705 1101 702C1098 699 1094 697 1090 694C1087 691 1084 688 1082 684C1079 681 1077 677 1076 674C1075 670 1074 666 1073 662C1073 659 1073 655 1074 651C1074 647 1075 644 1076 640C1077 636 1078 633 1079 629C1081 626 1082 622 1084 619C1085 616 1087 612 1089 609C1090 606 1092 603 1094 600C1097 597 1099 594 1102 591C1104 588 1107 585 1109 582C1112 579 1115 577 1118 574C1121 571 1123 568 1127 565C1130 562 1133 560 1136 557C1139 554 1143 551 1147 549C1151 546 1155 544 1159 542C1164 540 1168 538 1173 537C1178 536 1184 535 1189 535C1194 534 1200 535 1205 535C1210 536 1215 537 1220 538C1225 539 1230 540 1235 541C1239 542 1244 543 1249 543C1253 544 1258 544 1263 545C1268 546 1273 546 1278 546C1283 547 1288 548 1293 549C1298 550 1303 551 1308 553C1313 554 1317 557 1321 559C1325 562 1329 565 1332 568C1335 571 1337 574 1339 578C1342 581 1343 585 1345 588C1347 592 1348 595 1350 598C1351 602 1353 605 1354 609C1356 612 1357 615 1359 619C1360 622 1362 626 1363 629C1364 633 1365 636 1365 640Z"/><path d="M1402 640C1403 645 1403 649 1403 654C1402 658 1402 663 1400 668C1399 672 1397 677 1395 681C1393 685 1391 690 1388 694C1385 698 1382 702 1379 706C1375 710 1372 714 1367 717C1363 721 1359 724 1354 727C1349 730 1344 733 1339 735C1333 737 1327 739 1322 741C1316 742 1310 744 1304 745C1299 747 1293 748 1287 749C1282 750 1277 752 1271 753C1266 755 1261 757 1255 759C1250 761 1244 763 1238 765C1232 767 1226 769 1220 771C1214 772 1207 774 1200 774C1194 775 1187 775 1180 774C1174 773 1167 772 1161 770C1155 768 1149 766 1144 763C1139 760 1134 757 1129 754C1124 751 1119 747 1115 744C1110 741 1105 738 1101 735C1096 732 1091 730 1086 727C1081 724 1076 721 1071 718C1067 715 1062 711 1058 707C1054 704 1050 700 1047 696C1044 691 1041 687 1040 682C1038 678 1037 673 1037 668C1037 663 1037 658 1038 654C1038 649 1039 645 1041 640C1042 635 1043 631 1045 627C1047 622 1048 618 1050 614C1052 610 1054 606 1056 602C1058 598 1061 594 1064 590C1066 586 1069 582 1072 579C1075 575 1079 571 1082 568C1085 564 1089 561 1092 557C1096 554 1099 550 1103 546C1107 543 1111 539 1115 536C1119 532 1123 528 1128 525C1133 522 1138 519 1144 517C1149 514 1155 512 1162 511C1168 509 1175 509 1181 508C1188 508 1194 509 1201 509C1207 510 1214 511 1220 512C1226 514 1232 515 1238 516C1244 517 1250 518 1256 519C1262 520 1267 521 1274 521C1280 522 1286 522 1292 523C1299 524 1305 524 1312 526C1318 527 1325 528 1330 531C1336 533 1342 536 1347 539C1352 542 1356 546 1360 550C1363 553 1366 558 1369 562C1372 566 1374 571 1376 575C1378 580 1380 584 1382 588C1384 592 1386 597 1388 601C1389 605 1392 609 1393 613C1395 618 1397 622 1399 626C1400 631 1401 635 1402 640Z"/><path d="M1439 640C1439 645 1440 651 1439 657C1439 662 1438 668 1436 673C1435 679 1433 684 1430 689C1428 694 1425 700 1421 705C1418 710 1414 714 1410 719C1406 724 1402 728 1397 732C1392 737 1386 741 1380 744C1375 748 1368 751 1362 753C1355 756 1348 758 1342 760C1335 762 1328 764 1321 766C1314 767 1307 769 1301 770C1294 772 1288 774 1281 776C1275 778 1269 780 1262 783C1256 785 1249 788 1242 790C1235 793 1228 796 1220 797C1212 799 1204 801 1196 802C1188 802 1180 802 1172 802C1164 801 1157 799 1149 796C1142 794 1135 791 1129 788C1122 784 1116 780 1111 777C1105 773 1099 769 1094 765C1088 762 1083 758 1077 755C1071 751 1065 748 1059 744C1053 741 1047 737 1041 733C1036 730 1030 726 1025 721C1020 717 1015 712 1012 707C1008 702 1005 696 1004 691C1002 685 1001 679 1001 674C1000 668 1001 662 1002 657C1003 651 1004 645 1005 640C1007 635 1009 629 1011 624C1013 619 1015 614 1017 609C1019 604 1021 599 1024 594C1027 589 1030 585 1033 580C1036 575 1039 571 1043 566C1047 562 1050 558 1054 553C1058 549 1062 545 1067 541C1071 536 1075 532 1079 528C1084 523 1088 519 1093 514C1098 510 1103 506 1109 502C1115 498 1121 494 1128 491C1135 489 1142 486 1150 485C1157 483 1165 482 1173 482C1181 482 1189 482 1197 483C1205 484 1213 486 1220 487C1227 489 1235 490 1242 492C1249 493 1256 494 1263 495C1270 496 1277 497 1284 497C1292 498 1299 498 1307 499C1315 500 1323 501 1330 502C1338 504 1346 506 1353 508C1360 511 1367 514 1372 518C1378 522 1383 527 1388 531C1392 536 1395 541 1399 547C1402 552 1404 557 1407 562C1409 568 1411 573 1414 578C1416 583 1418 588 1421 593C1423 598 1426 603 1428 608C1430 613 1433 618 1435 624C1436 629 1438 635 1439 640Z"/><path d="M1475 640C1476 646 1477 653 1476 659C1476 666 1475 672 1473 679C1471 685 1468 691 1465 697C1462 703 1459 710 1455 715C1451 721 1447 727 1442 732C1437 738 1432 743 1426 748C1420 752 1414 757 1407 761C1400 765 1393 769 1385 772C1377 775 1369 778 1361 780C1353 782 1345 784 1337 786C1329 788 1321 790 1314 792C1306 794 1299 796 1291 798C1284 801 1277 804 1269 807C1262 810 1254 813 1246 816C1238 819 1229 822 1220 825C1211 827 1202 829 1192 830C1183 830 1173 830 1164 829C1155 828 1146 826 1137 823C1129 820 1121 816 1114 812C1106 808 1099 803 1092 799C1086 795 1079 790 1073 786C1066 782 1060 778 1053 774C1046 770 1039 766 1032 762C1025 758 1018 754 1011 749C1004 745 997 740 992 735C986 730 981 724 977 718C973 712 970 706 968 699C965 693 965 686 964 679C964 672 965 666 966 659C967 653 969 646 971 640C972 634 974 628 977 622C979 616 981 610 984 604C986 598 989 592 992 587C995 581 998 576 1002 570C1006 565 1010 559 1014 554C1018 549 1022 544 1027 539C1031 534 1036 529 1041 524C1046 519 1050 514 1056 509C1061 503 1066 498 1072 493C1078 488 1084 483 1090 478C1097 474 1105 470 1113 466C1120 463 1129 460 1138 458C1147 457 1156 456 1166 456C1175 455 1184 456 1193 458C1202 459 1211 461 1220 462C1229 464 1237 466 1245 467C1253 469 1261 470 1270 471C1278 472 1286 473 1295 473C1304 474 1313 474 1322 475C1331 476 1340 477 1349 479C1358 481 1367 483 1375 486C1384 489 1391 493 1398 498C1405 502 1410 508 1415 513C1420 519 1424 525 1428 531C1432 537 1435 544 1437 550C1440 556 1443 562 1446 568C1448 574 1451 579 1454 585C1457 591 1460 597 1463 603C1466 609 1468 615 1470 621C1473 627 1474 634 1475 640Z"/><path d="M1512 640C1513 647 1514 655 1513 662C1513 670 1511 677 1509 684C1507 691 1504 699 1500 706C1497 713 1493 719 1488 726C1484 733 1479 739 1473 745C1468 751 1462 757 1455 763C1448 768 1441 773 1433 778C1425 783 1417 787 1408 790C1399 794 1390 797 1381 799C1372 802 1362 804 1353 806C1344 808 1335 810 1327 813C1318 815 1310 818 1302 821C1293 824 1285 827 1276 831C1268 834 1259 839 1249 842C1240 846 1230 849 1220 852C1210 855 1199 857 1188 858C1178 858 1166 858 1156 857C1146 855 1135 853 1126 849C1116 846 1107 841 1098 837C1090 832 1082 827 1074 822C1067 817 1059 811 1052 807C1044 802 1037 797 1029 793C1021 788 1013 784 1005 779C997 775 988 770 981 765C973 760 965 755 959 749C952 743 946 736 942 729C937 722 934 715 931 707C929 700 928 692 928 685C928 677 929 669 931 662C932 654 934 647 936 640C938 633 940 626 943 619C945 612 948 605 951 599C954 592 957 586 960 579C964 573 967 566 971 560C976 554 980 548 985 542C989 536 994 530 1000 525C1005 519 1010 513 1015 507C1021 501 1026 495 1032 489C1037 483 1043 477 1050 472C1057 466 1064 460 1071 455C1079 450 1088 445 1097 441C1106 437 1116 434 1126 432C1136 430 1147 429 1158 429C1168 429 1179 431 1190 432C1200 433 1210 436 1220 437C1230 439 1239 442 1249 443C1258 445 1267 446 1277 447C1286 448 1296 449 1306 449C1316 450 1326 450 1337 451C1347 452 1358 453 1368 455C1379 457 1389 460 1398 463C1407 467 1416 472 1424 477C1431 482 1438 489 1443 495C1449 502 1453 509 1457 516C1462 523 1465 530 1468 537C1471 544 1474 551 1477 557C1481 564 1484 571 1487 577C1491 584 1494 591 1498 598C1501 604 1504 611 1507 618C1509 625 1511 633 1512 640Z"/><path d="M1549 640C1550 648 1551 657 1550 665C1549 673 1548 682 1545 690C1543 698 1539 706 1535 714C1531 722 1527 729 1522 737C1517 744 1511 751 1505 758C1498 765 1491 772 1484 778C1476 784 1468 790 1459 795C1450 800 1440 804 1431 808C1421 812 1410 815 1400 818C1390 821 1379 824 1369 826C1359 829 1349 831 1340 834C1330 837 1321 840 1312 843C1302 847 1293 851 1284 855C1274 859 1264 864 1253 868C1243 872 1232 877 1220 880C1208 883 1196 885 1184 886C1172 887 1160 886 1148 885C1136 883 1124 880 1114 876C1103 872 1093 867 1083 861C1074 856 1065 850 1056 844C1048 839 1040 833 1031 827C1022 822 1014 817 1005 812C996 807 987 802 978 797C969 792 959 787 950 781C941 775 933 769 925 762C918 756 911 748 906 741C901 733 898 724 896 716C893 708 893 699 892 690C892 682 894 673 895 665C897 656 899 648 902 640C904 632 907 624 909 616C912 609 915 601 918 594C921 586 925 579 929 572C932 565 936 558 941 551C946 544 951 537 956 530C961 523 966 517 972 510C978 504 983 497 989 490C995 484 1001 477 1008 470C1014 463 1021 456 1028 450C1036 443 1043 437 1052 431C1061 425 1071 419 1081 415C1091 411 1103 408 1114 406C1126 404 1138 403 1150 403C1162 403 1174 405 1186 406C1198 408 1209 411 1220 413C1231 415 1242 417 1252 419C1263 421 1273 422 1284 423C1295 424 1306 425 1317 425C1328 426 1340 426 1352 427C1364 428 1376 429 1387 431C1399 434 1411 437 1421 441C1431 445 1441 450 1450 456C1458 463 1465 470 1471 477C1477 484 1482 493 1487 500C1491 508 1495 516 1498 524C1502 532 1505 540 1509 547C1513 555 1517 562 1520 570C1524 577 1529 585 1532 592C1536 600 1540 608 1543 616C1545 624 1548 632 1549 640Z"/><path d="M1586 640C1588 649 1588 659 1587 668C1586 677 1584 686 1581 695C1579 704 1575 713 1570 722C1566 731 1561 739 1555 747C1549 756 1543 764 1536 771C1529 779 1521 786 1512 793C1504 800 1495 806 1485 812C1475 817 1464 822 1453 826C1442 831 1430 834 1419 837C1408 841 1396 843 1385 846C1374 849 1363 852 1353 855C1342 858 1332 862 1322 866C1312 870 1302 875 1291 880C1280 885 1269 890 1257 895C1245 900 1233 904 1220 908C1207 911 1193 914 1180 915C1166 915 1153 915 1139 913C1126 911 1114 907 1102 902C1090 898 1079 892 1068 886C1057 880 1048 873 1038 867C1029 860 1020 854 1010 848C1001 842 991 836 981 831C971 825 961 820 950 815C940 809 929 804 920 797C910 791 900 784 892 776C884 769 877 760 871 752C866 743 862 734 860 724C857 715 857 705 857 696C857 686 859 676 861 667C862 658 865 649 868 640C870 631 873 623 876 614C879 605 882 597 886 589C889 581 893 572 897 564C901 556 906 549 911 541C916 533 921 526 927 518C932 511 938 503 944 496C951 488 957 481 963 474C970 466 976 458 983 451C991 443 998 435 1006 428C1014 421 1023 413 1033 407C1043 400 1054 394 1065 390C1077 385 1090 382 1102 379C1115 377 1129 377 1142 377C1156 377 1169 379 1182 381C1195 383 1208 386 1220 388C1232 391 1244 393 1256 395C1268 397 1279 398 1291 399C1303 400 1315 401 1328 401C1340 402 1354 401 1367 402C1380 403 1394 405 1407 407C1420 410 1433 413 1444 418C1455 423 1466 429 1475 436C1485 443 1492 451 1499 459C1506 467 1511 476 1516 485C1521 494 1525 503 1529 512C1533 520 1536 529 1541 537C1545 546 1549 554 1554 562C1558 570 1563 578 1567 587C1571 595 1576 604 1579 613C1582 622 1585 631 1586 640Z"/><path d="M1623 640C1625 650 1625 660 1624 671C1623 681 1621 691 1618 701C1615 711 1610 721 1605 730C1600 740 1595 749 1588 758C1582 767 1575 776 1567 784C1559 792 1550 801 1541 808C1532 815 1521 822 1510 828C1499 834 1487 840 1475 844C1463 849 1451 853 1438 856C1426 860 1413 863 1401 866C1389 869 1377 872 1366 876C1354 880 1344 884 1332 889C1321 893 1310 899 1298 905C1286 910 1274 916 1261 922C1248 927 1234 933 1220 936C1206 940 1191 943 1176 943C1161 944 1145 943 1131 941C1117 939 1103 934 1090 929C1077 924 1064 917 1053 910C1041 904 1031 896 1020 889C1010 882 1000 875 989 869C979 862 968 856 957 850C946 844 934 839 923 832C912 826 900 820 889 813C878 806 867 799 858 790C850 782 842 773 836 763C830 753 826 743 824 733C822 722 821 711 822 701C822 691 824 680 826 670C828 660 831 650 834 640C837 630 840 621 843 612C847 602 850 593 854 584C857 575 861 566 866 557C870 548 875 540 880 531C886 523 892 514 898 506C904 498 910 490 917 481C923 473 930 465 937 457C944 448 951 440 959 431C967 423 975 414 984 406C993 398 1003 389 1013 382C1024 375 1036 369 1049 364C1062 359 1076 355 1091 353C1105 351 1120 351 1135 351C1149 351 1164 354 1179 356C1193 358 1207 361 1220 364C1233 367 1246 369 1259 371C1272 373 1285 375 1298 375C1311 376 1325 376 1339 377C1353 377 1368 377 1382 378C1397 379 1412 380 1426 383C1440 386 1455 390 1467 395C1480 401 1491 407 1501 415C1511 423 1520 432 1527 441C1534 450 1540 460 1545 470C1550 480 1554 490 1559 499C1563 509 1567 518 1572 527C1577 536 1582 545 1587 554C1592 563 1597 572 1602 582C1607 591 1612 600 1615 610C1619 620 1622 630 1623 640Z"/><path d="M1660 640C1662 651 1662 662 1661 673C1660 684 1657 696 1654 706C1650 717 1646 728 1640 738C1635 749 1628 759 1621 769C1614 778 1606 788 1598 797C1589 806 1580 815 1569 823C1559 831 1548 838 1536 845C1524 851 1511 857 1497 862C1484 867 1470 871 1457 875C1444 879 1430 882 1417 886C1404 889 1391 893 1379 897C1366 901 1355 906 1343 912C1330 917 1318 923 1306 930C1293 936 1279 943 1265 949C1251 955 1236 961 1220 965C1204 969 1188 972 1171 973C1155 973 1138 972 1123 969C1107 966 1092 961 1078 955C1063 950 1050 942 1038 935C1025 927 1014 919 1003 911C991 904 980 896 969 889C957 882 945 876 933 869C921 863 908 857 896 850C883 844 870 837 858 829C846 822 834 813 825 804C815 795 807 785 801 774C795 764 791 752 788 741C786 730 786 718 786 706C787 695 789 683 792 672C794 661 798 651 801 640C804 629 807 619 811 609C814 599 818 589 822 579C826 569 830 559 835 550C839 540 844 531 850 521C856 512 862 503 869 494C875 485 882 476 889 467C896 458 903 449 911 440C919 430 926 421 934 412C943 402 951 393 961 384C971 375 982 366 994 358C1006 350 1019 343 1033 338C1047 333 1063 329 1079 327C1094 325 1111 324 1127 325C1143 326 1159 328 1175 331C1190 333 1205 337 1220 340C1235 343 1249 346 1263 348C1277 349 1291 351 1305 351C1320 352 1335 352 1350 352C1365 352 1381 352 1397 353C1413 354 1430 355 1446 359C1461 362 1477 366 1490 372C1504 378 1516 386 1527 394C1538 403 1547 413 1554 423C1562 433 1568 444 1574 455C1579 466 1584 476 1589 487C1594 497 1598 507 1603 517C1609 527 1614 537 1620 546C1625 556 1632 566 1637 576C1642 586 1648 597 1652 607C1656 618 1659 629 1660 640Z"/><path d="M1012 150C1012 151 1012 152 1012 152C1012 153 1011 154 1011 155C1010 155 1010 156 1009 157C1008 157 1008 158 1007 159C1007 159 1006 160 1005 161C1005 161 1004 162 1004 162C1003 163 1003 164 1002 164C1001 165 1001 166 1000 166C999 167 999 167 998 168C997 168 996 168 995 169C994 169 993 169 992 170C991 170 990 171 989 171C988 171 988 172 987 172C986 173 985 173 983 173C982 174 981 174 980 174C979 174 978 174 976 174C975 174 974 174 973 173C972 173 971 172 970 171C970 171 969 170 968 169C968 168 967 167 967 167C966 166 965 166 965 165C964 165 963 164 962 164C962 164 961 164 960 163C959 163 958 163 957 162C956 162 955 161 954 161C953 160 953 160 952 159C952 158 952 157 952 157C952 156 952 155 952 154C953 153 953 153 953 152C953 151 953 151 953 150C953 149 953 149 953 148C952 147 952 146 952 146C951 145 951 144 951 143C951 142 951 141 951 141C951 140 951 139 952 138C952 137 952 137 953 136C954 135 955 135 955 134C956 133 957 133 958 132C959 132 960 131 961 131C961 130 962 130 963 129C964 129 966 129 967 128C968 128 969 128 970 128C971 128 972 128 974 128C975 129 976 129 977 129C978 130 979 130 980 130C981 131 982 131 983 131C984 131 985 131 986 131C987 131 988 131 989 131C990 131 991 131 992 131C993 131 994 131 995 131C996 131 998 131 998 132C999 132 1000 133 1001 134C1001 134 1001 135 1002 136C1002 137 1002 137 1003 138C1003 139 1003 140 1003 140C1004 141 1004 142 1005 142C1005 143 1006 143 1007 144C1007 144 1008 145 1009 146C1010 146 1011 147 1011 148C1012 148 1012 149 1012 150Z"/><path d="M1045 150C1045 152 1045 153 1044 155C1044 156 1043 158 1042 159C1041 161 1039 162 1038 164C1037 165 1035 166 1034 167C1033 169 1032 170 1031 171C1030 172 1029 174 1028 175C1027 176 1026 177 1024 179C1023 180 1022 181 1020 182C1019 183 1017 184 1015 185C1014 186 1012 187 1010 187C1008 188 1006 189 1005 190C1003 190 1001 191 999 192C997 193 995 194 993 195C991 195 989 196 987 197C985 198 982 198 980 199C978 199 975 199 973 198C971 198 968 197 966 196C964 195 963 194 961 192C959 191 958 189 957 188C956 186 955 184 953 183C952 182 951 181 950 180C948 179 947 179 945 178C943 177 941 177 939 176C937 176 935 175 933 175C931 174 929 173 928 172C927 170 926 169 925 168C924 166 924 165 924 163C924 162 925 160 925 158C925 157 926 155 926 154C926 153 926 151 926 150C926 149 926 147 925 146C925 144 924 143 923 141C923 140 922 138 922 136C921 135 921 133 921 131C921 129 922 128 923 126C923 125 925 123 926 122C927 120 929 119 930 118C932 117 934 115 935 114C937 113 939 112 941 111C943 110 945 109 947 109C949 108 951 107 953 107C956 106 958 106 960 106C963 106 965 107 967 107C970 108 972 108 974 109C976 110 978 110 980 111C982 112 984 112 986 112C987 113 989 113 991 112C993 112 995 112 997 112C999 112 1002 111 1004 111C1006 111 1009 111 1011 111C1013 112 1015 113 1017 114C1018 114 1020 116 1021 117C1022 119 1023 120 1023 122C1024 123 1024 125 1025 127C1025 128 1026 129 1026 131C1027 132 1028 133 1029 134C1030 135 1032 136 1033 137C1035 139 1037 140 1038 141C1040 142 1042 144 1043 145C1044 147 1044 148 1045 150Z"/><path d="M1078 150C1078 152 1078 155 1077 157C1076 160 1074 162 1073 164C1071 166 1069 168 1067 170C1065 172 1063 174 1061 176C1059 178 1058 180 1056 182C1054 184 1053 185 1051 187C1050 189 1048 191 1046 193C1045 195 1043 197 1040 198C1038 200 1036 201 1033 203C1031 204 1028 205 1025 206C1022 207 1020 208 1017 210C1014 211 1011 212 1009 213C1006 214 1003 216 1000 217C997 218 994 220 990 221C987 222 983 223 980 223C977 223 973 223 969 223C966 222 963 221 960 219C957 217 954 215 952 213C949 211 947 208 946 206C944 203 942 201 940 199C939 197 937 196 935 195C933 193 930 193 928 192C925 191 922 191 919 190C916 189 912 188 910 187C907 186 904 184 902 182C900 181 898 179 897 176C896 174 896 172 896 170C897 167 897 165 898 163C898 160 899 158 899 156C900 154 900 152 900 150C899 148 898 146 898 144C897 142 895 139 894 137C893 134 892 132 892 129C891 127 891 124 891 121C891 119 892 116 893 114C895 112 896 109 898 107C900 105 903 103 905 102C908 100 910 98 913 96C916 95 918 93 921 92C924 90 927 89 930 88C933 87 937 86 940 85C943 85 947 85 951 85C954 85 958 86 961 86C965 87 968 88 971 89C974 90 977 91 980 92C983 93 985 94 988 94C991 94 994 94 997 94C1000 94 1003 93 1006 93C1009 92 1013 92 1016 91C1020 91 1023 91 1026 92C1030 93 1033 94 1035 95C1038 97 1040 99 1041 101C1043 103 1044 106 1045 108C1046 110 1046 113 1047 115C1047 117 1048 119 1049 121C1050 123 1052 125 1054 126C1056 128 1058 129 1060 131C1063 133 1066 135 1068 137C1070 138 1073 141 1074 143C1076 145 1077 148 1078 150Z"/><path d="M1111 150C1111 153 1111 157 1109 160C1108 163 1106 166 1104 169C1101 172 1098 174 1096 177C1093 180 1090 182 1088 185C1086 187 1083 190 1081 192C1079 195 1077 197 1075 200C1073 202 1071 205 1069 208C1066 210 1064 212 1061 214C1058 217 1054 219 1051 220C1048 222 1044 224 1040 225C1037 227 1033 228 1029 230C1026 231 1022 233 1018 235C1014 236 1011 238 1007 240C1003 242 998 244 994 245C989 246 985 247 980 248C975 248 970 248 966 247C961 246 957 244 953 242C949 239 946 236 943 233C939 230 937 226 935 223C932 220 930 217 928 215C926 213 923 211 920 209C917 208 914 207 910 206C907 205 902 204 898 203C894 202 890 201 886 199C882 198 878 196 876 193C873 191 871 188 870 185C869 182 869 179 869 176C869 173 870 170 871 167C871 164 873 161 873 158C873 155 873 153 873 150C872 147 871 145 870 142C868 139 866 136 865 132C864 129 862 126 861 122C860 119 860 115 860 112C861 108 862 105 864 102C865 98 868 96 871 93C873 90 877 88 880 85C883 83 887 80 890 78C894 76 898 74 902 72C905 70 909 69 914 67C918 66 922 65 927 64C931 63 936 63 941 63C946 64 951 65 955 66C960 67 964 68 968 70C972 71 976 73 980 74C984 75 987 75 991 76C995 76 998 76 1002 75C1006 75 1010 74 1015 73C1019 73 1024 72 1028 72C1033 72 1038 72 1042 72C1046 73 1051 75 1054 77C1057 79 1060 82 1062 85C1064 88 1065 91 1066 94C1067 97 1067 101 1068 104C1069 107 1070 109 1072 112C1074 114 1076 116 1078 119C1081 121 1084 123 1088 125C1091 127 1095 129 1098 132C1101 135 1105 137 1107 140C1109 143 1110 147 1111 150Z"/><path d="M1144 150C1145 154 1144 158 1142 162C1141 166 1138 170 1135 174C1132 177 1128 181 1125 184C1121 187 1118 190 1115 193C1112 196 1109 199 1107 203C1104 206 1102 209 1099 212C1097 216 1094 219 1091 222C1088 225 1085 228 1081 231C1077 233 1073 236 1069 238C1065 240 1060 242 1055 244C1051 246 1046 248 1042 250C1037 252 1033 254 1028 256C1023 258 1018 261 1013 263C1008 265 1003 268 997 269C992 271 986 272 980 273C974 273 968 272 962 271C957 270 951 267 946 264C942 261 937 257 934 253C930 249 927 244 924 241C921 237 919 233 916 230C913 227 910 225 906 223C902 221 898 220 893 219C889 218 883 217 878 216C873 215 867 214 862 212C857 210 853 207 849 204C846 201 844 198 842 194C841 190 841 186 841 182C842 179 843 175 844 171C845 167 846 164 847 160C847 157 847 153 846 150C845 147 843 143 842 140C840 136 837 132 835 128C833 124 831 119 830 115C829 111 828 106 829 102C830 97 831 93 833 89C836 85 839 81 842 78C846 75 850 72 854 69C859 66 863 63 868 60C872 58 877 55 882 53C887 50 892 48 897 46C902 45 908 43 914 43C919 42 925 42 931 42C937 43 943 44 949 45C955 47 960 49 965 51C971 52 975 54 980 55C985 57 989 58 993 58C998 58 1002 58 1007 57C1012 56 1018 55 1023 54C1029 53 1035 52 1041 52C1047 52 1053 52 1058 53C1063 54 1068 56 1072 59C1076 61 1079 65 1082 69C1084 72 1086 77 1087 81C1088 85 1089 89 1090 92C1091 96 1092 99 1094 102C1097 105 1099 108 1103 111C1106 113 1111 116 1115 118C1119 121 1125 124 1129 127C1133 130 1137 134 1140 138C1142 142 1144 146 1144 150Z"/><path d="M1178 150C1179 155 1177 160 1175 165C1173 169 1169 174 1165 178C1162 183 1157 187 1153 190C1149 194 1145 198 1141 202C1138 205 1135 209 1132 213C1129 217 1126 221 1123 225C1120 229 1117 233 1113 236C1110 240 1106 244 1101 247C1097 250 1092 253 1087 256C1082 258 1076 261 1071 263C1065 265 1060 268 1054 270C1049 272 1043 275 1038 278C1032 280 1026 284 1020 286C1014 289 1008 292 1001 294C994 296 987 297 980 297C973 298 966 297 959 295C952 293 946 290 940 286C934 282 929 277 925 272C920 268 917 262 914 257C910 253 907 249 904 245C900 242 897 239 892 237C887 235 882 234 876 233C871 232 864 231 857 230C851 228 844 227 838 224C832 222 827 219 823 215C819 212 816 207 815 203C813 199 814 193 814 189C815 184 816 179 817 175C818 170 820 166 820 162C821 158 820 154 819 150C818 146 815 142 813 137C811 133 807 128 805 123C802 118 800 113 798 107C797 102 796 97 797 91C798 86 800 81 803 76C806 72 810 67 814 63C818 59 824 55 829 52C834 48 839 45 845 42C850 39 856 36 862 33C868 30 874 28 880 26C887 24 894 22 901 22C908 21 915 21 922 22C929 22 936 24 943 26C950 27 957 30 963 32C969 34 974 36 980 38C986 39 991 40 996 40C1002 40 1007 40 1013 39C1019 38 1025 36 1032 35C1039 34 1046 32 1053 32C1060 31 1068 32 1074 33C1080 34 1086 37 1091 40C1095 43 1099 48 1102 53C1105 57 1106 62 1108 67C1109 72 1110 77 1111 81C1113 86 1114 90 1117 93C1120 97 1123 100 1127 103C1132 106 1138 109 1143 112C1148 115 1155 119 1160 122C1165 126 1170 131 1173 135C1176 140 1178 145 1178 150Z"/><path d="M1212 150C1213 156 1211 162 1208 167C1205 173 1201 178 1196 183C1192 188 1186 193 1181 197C1177 202 1172 206 1168 210C1164 215 1160 219 1157 223C1153 228 1150 233 1147 237C1143 242 1140 247 1136 251C1132 255 1127 260 1122 263C1117 267 1111 270 1105 274C1099 277 1092 279 1086 282C1080 285 1073 287 1067 290C1060 293 1054 296 1048 300C1041 303 1034 307 1027 310C1020 313 1012 316 1005 318C997 320 988 322 980 322C972 322 963 321 955 319C948 317 940 312 933 308C927 303 921 297 916 291C911 286 907 279 903 274C899 269 896 263 892 260C888 256 884 253 878 251C873 249 866 248 859 246C852 245 844 245 837 243C829 241 820 240 814 237C807 234 801 231 796 226C792 222 789 217 787 212C786 207 786 201 787 195C788 190 790 184 791 179C792 174 794 169 794 164C794 159 794 155 792 150C790 145 787 140 784 135C781 130 777 124 774 118C771 113 768 106 766 100C765 94 764 87 765 81C766 75 768 69 772 63C775 58 780 53 785 48C791 44 797 39 803 35C809 31 816 27 822 24C829 20 835 17 842 14C849 10 856 7 864 5C872 3 880 1 888 1C896 0 904 0 913 1C921 2 930 4 938 6C945 8 953 11 960 14C967 16 974 19 980 20C986 22 992 23 999 23C1005 23 1011 22 1018 20C1025 19 1033 17 1041 15C1049 14 1058 12 1066 11C1074 11 1083 11 1090 13C1097 15 1104 18 1109 22C1115 26 1119 31 1122 37C1125 42 1126 48 1128 54C1130 60 1130 65 1132 70C1134 75 1136 80 1139 84C1142 88 1147 91 1152 95C1158 98 1165 101 1171 105C1178 109 1185 113 1191 118C1197 122 1203 127 1206 133C1210 138 1212 144 1212 150Z"/></g></svg>